<svg width="48" height="48" viewBox="0 0 48 48" fill="none" xmlns="http://www.w3.org/2000/svg">
<path d="M24.4103 4C16.2051 4 8 6.05128 8 10.1538V37.8462C8 41.9487 16.2051 44 24.4103 44C32.6154 44 40.8205 41.9487 40.8205 37.8462V10.1538C40.8205 6.05128 32.6154 4 24.4103 4ZM38.7692 37.8462C38.7692 39.5282 33.1692 41.9487 24.4103 41.9487C15.6513 41.9487 10.0513 39.5282 10.0513 37.8462V31.6923C13.0051 33.7436 18.7282 34.7692 24.4103 34.7692C30.0923 34.7692 35.8154 33.7436 38.7692 31.7538V37.8462ZM38.7692 28.6154C38.7692 30.2974 33.1692 32.718 24.4103 32.718C15.6513 32.718 10.0513 30.2974 10.0513 28.6154V22.4615C13.0051 24.5128 18.7282 25.4769 24.4103 25.4769C30.0923 25.4769 35.8154 24.5128 38.7692 22.4615V28.6154ZM38.7692 19.3846C38.7692 21.0667 33.1692 23.4872 24.4103 23.4872C15.6513 23.4872 10.0513 21.0667 10.0513 19.3846V13.2308C13.0051 15.2821 18.7282 16.3077 24.4103 16.3077C30.0923 16.3077 35.8154 15.2821 38.7692 13.2923V19.3846ZM24.4103 14.2564C15.6513 14.2564 10.0513 11.8359 10.0513 10.1538C10.0513 8.4718 15.6513 6.05128 24.4103 6.05128C33.1692 6.05128 38.7692 8.4718 38.7692 10.1538C38.7692 11.8359 33.1692 14.2564 24.4103 14.2564Z" fill="white"/>
</svg>
